<svg width="231" height="16" viewBox="0 0 231 16" fill="none" xmlns="http://www.w3.org/2000/svg">
<path d="M6.352 12.064C5.25333 12.064 4.288 11.824 3.456 11.344C2.624 10.8533 1.97333 10.1813 1.504 9.328C1.04533 8.47467 0.816 7.49867 0.816 6.4C0.816 5.29067 1.04533 4.30933 1.504 3.456C1.97333 2.60267 2.624 1.936 3.456 1.456C4.288 0.975999 5.25333 0.735999 6.352 0.735999C7.45067 0.735999 8.416 0.975999 9.248 1.456C10.08 1.936 10.7253 2.60267 11.184 3.456C11.6533 4.30933 11.888 5.29067 11.888 6.4C11.888 7.49867 11.6533 8.47467 11.184 9.328C10.7253 10.1813 10.08 10.8533 9.248 11.344C8.416 11.824 7.45067 12.064 6.352 12.064ZM6.352 11.472C7.35467 11.472 8.224 11.2587 8.96 10.832C9.696 10.4053 10.2613 9.808 10.656 9.04C11.0613 8.272 11.264 7.392 11.264 6.4C11.264 5.38667 11.0613 4.50133 10.656 3.744C10.2613 2.976 9.696 2.37867 8.96 1.952C8.224 1.52533 7.35467 1.312 6.352 1.312C5.34933 1.312 4.48 1.52533 3.744 1.952C3.008 2.37867 2.43733 2.976 2.032 3.744C1.63733 4.50133 1.44 5.38667 1.44 6.4C1.44 7.392 1.63733 8.272 2.032 9.04C2.43733 9.808 3.008 10.4053 3.744 10.832C4.48 11.2587 5.34933 11.472 6.352 11.472ZM6.352 10.096C5.712 10.096 5.13067 9.952 4.608 9.664C4.08533 9.376 3.664 8.95467 3.344 8.4C3.03467 7.83467 2.88 7.16267 2.88 6.384C2.88 5.60533 3.03467 4.93867 3.344 4.384C3.664 3.82933 4.08533 3.408 4.608 3.12C5.13067 2.82133 5.712 2.672 6.352 2.672C7.14133 2.672 7.83467 2.88533 8.432 3.312C9.02933 3.728 9.42933 4.33067 9.632 5.12H8.4C8.25067 4.64 7.98933 4.27733 7.616 4.032C7.24267 3.776 6.816 3.648 6.336 3.648C5.71733 3.648 5.184 3.87733 4.736 4.336C4.288 4.79467 4.064 5.48267 4.064 6.4C4.064 7.30667 4.288 7.98933 4.736 8.448C5.184 8.90667 5.71733 9.136 6.336 9.136C7.38133 9.136 8.06933 8.65067 8.4 7.68H9.632C9.42933 8.42667 9.02933 9.01867 8.432 9.456C7.83467 9.88267 7.14133 10.096 6.352 10.096ZM17.9455 12V11.056C18.7028 10.4587 19.4175 9.856 20.0895 9.248C20.7722 8.62933 21.3748 8.02133 21.8975 7.424C22.4308 6.82667 22.8468 6.24 23.1455 5.664C23.4548 5.088 23.6095 4.53333 23.6095 4C23.6095 3.60533 23.5402 3.23733 23.4015 2.896C23.2735 2.55467 23.0602 2.28267 22.7615 2.08C22.4628 1.86667 22.0575 1.76 21.5455 1.76C21.0548 1.76 20.6442 1.872 20.3135 2.096C19.9828 2.30933 19.7322 2.59733 19.5615 2.96C19.4015 3.32267 19.3215 3.712 19.3215 4.128H18.0255C18.0255 3.392 18.1802 2.76267 18.4895 2.24C18.7988 1.70667 19.2202 1.30133 19.7535 1.024C20.2868 0.746666 20.8895 0.608 21.5615 0.608C22.5535 0.608 23.3642 0.890666 23.9935 1.456C24.6335 2.01067 24.9535 2.84267 24.9535 3.952C24.9535 4.61333 24.7882 5.26933 24.4575 5.92C24.1268 6.56 23.7055 7.184 23.1935 7.792C22.6815 8.38933 22.1322 8.94933 21.5455 9.472C20.9695 9.99467 20.4308 10.464 19.9295 10.88H25.3375V12H17.9455ZM31.4895 12.192C30.4975 12.192 29.6388 11.952 28.9135 11.472C28.1988 10.9813 27.6495 10.304 27.2655 9.44C26.8815 8.56533 26.6895 7.552 26.6895 6.4C26.6895 5.248 26.8815 4.24 27.2655 3.376C27.6495 2.50133 28.1988 1.824 28.9135 1.344C29.6388 0.853333 30.4975 0.608 31.4895 0.608C32.4815 0.608 33.3348 0.853333 34.0495 1.344C34.7642 1.824 35.3135 2.50133 35.6975 3.376C36.0815 4.24 36.2735 5.248 36.2735 6.4C36.2735 7.552 36.0815 8.56533 35.6975 9.44C35.3135 10.304 34.7642 10.9813 34.0495 11.472C33.3348 11.952 32.4815 12.192 31.4895 12.192ZM31.4895 11.008C32.1402 11.008 32.7215 10.8267 33.2335 10.464C33.7562 10.0907 34.1615 9.56267 34.4495 8.88C34.7482 8.18667 34.8975 7.36 34.8975 6.4C34.8975 5.44 34.7482 4.61867 34.4495 3.936C34.1615 3.25333 33.7562 2.73067 33.2335 2.368C32.7215 1.99467 32.1402 1.808 31.4895 1.808C30.8282 1.808 30.2415 1.99467 29.7295 2.368C29.2175 2.73067 28.8122 3.25333 28.5135 3.936C28.2148 4.61867 28.0655 5.44 28.0655 6.4C28.0655 7.36 28.2148 8.18667 28.5135 8.88C28.8122 9.56267 29.2175 10.0907 29.7295 10.464C30.2415 10.8267 30.8282 11.008 31.4895 11.008ZM37.883 12V11.056C38.6403 10.4587 39.355 9.856 40.027 9.248C40.7097 8.62933 41.3123 8.02133 41.835 7.424C42.3683 6.82667 42.7843 6.24 43.083 5.664C43.3923 5.088 43.547 4.53333 43.547 4C43.547 3.60533 43.4777 3.23733 43.339 2.896C43.211 2.55467 42.9977 2.28267 42.699 2.08C42.4003 1.86667 41.995 1.76 41.483 1.76C40.9923 1.76 40.5817 1.872 40.251 2.096C39.9203 2.30933 39.6697 2.59733 39.499 2.96C39.339 3.32267 39.259 3.712 39.259 4.128H37.963C37.963 3.392 38.1177 2.76267 38.427 2.24C38.7363 1.70667 39.1577 1.30133 39.691 1.024C40.2243 0.746666 40.827 0.608 41.499 0.608C42.491 0.608 43.3017 0.890666 43.931 1.456C44.571 2.01067 44.891 2.84267 44.891 3.952C44.891 4.61333 44.7257 5.26933 44.395 5.92C44.0643 6.56 43.643 7.184 43.131 7.792C42.619 8.38933 42.0697 8.94933 41.483 9.472C40.907 9.99467 40.3683 10.464 39.867 10.88H45.275V12H37.883ZM48.3193 12V2.304L46.5113 2.704V1.776L48.7673 0.799999H49.6793V12H48.3193ZM56.2778 12V0.799999H63.2058V1.904H57.6218V5.808H62.7258V6.896H57.6218V10.896H63.2058V12H56.2778ZM65.229 12V4.064H66.445L66.525 5.488C66.781 4.98667 67.149 4.592 67.629 4.304C68.109 4.016 68.653 3.872 69.261 3.872C70.1997 3.872 70.9463 4.16 71.501 4.736C72.0663 5.30133 72.349 6.176 72.349 7.36V12H71.005V7.504C71.005 5.85067 70.3223 5.024 68.957 5.024C68.2743 5.024 67.7037 5.27467 67.245 5.776C66.797 6.26667 66.573 6.97067 66.573 7.888V12H65.229ZM75.0149 15.52L76.9829 11.232H76.5189L73.3669 4.064H74.8229L77.4469 10.24L80.2309 4.064H81.6229L76.4229 15.52H75.0149ZM85.1815 12.192C84.5202 12.192 83.9708 12.08 83.5335 11.856C83.0962 11.632 82.7708 11.3333 82.5575 10.96C82.3442 10.5867 82.2375 10.1813 82.2375 9.744C82.2375 8.93333 82.5468 8.30933 83.1655 7.872C83.7842 7.43467 84.6268 7.216 85.6935 7.216H87.8375V7.12C87.8375 6.42667 87.6562 5.904 87.2935 5.552C86.9308 5.18933 86.4455 5.008 85.8375 5.008C85.3148 5.008 84.8615 5.14133 84.4775 5.408C84.1042 5.664 83.8695 6.04267 83.7735 6.544H82.3975C82.4508 5.968 82.6428 5.48267 82.9735 5.088C83.3148 4.69333 83.7362 4.39467 84.2375 4.192C84.7388 3.97867 85.2722 3.872 85.8375 3.872C86.9468 3.872 87.7788 4.17067 88.3335 4.768C88.8988 5.35467 89.1815 6.13867 89.1815 7.12V12H87.9815L87.9015 10.576C87.6775 11.024 87.3468 11.408 86.9095 11.728C86.4828 12.0373 85.9068 12.192 85.1815 12.192ZM85.3895 11.056C85.9015 11.056 86.3388 10.9227 86.7015 10.656C87.0748 10.3893 87.3575 10.0427 87.5495 9.616C87.7415 9.18933 87.8375 8.74133 87.8375 8.272V8.256H85.8055C85.0162 8.256 84.4562 8.39467 84.1255 8.672C83.8055 8.93867 83.6455 9.27467 83.6455 9.68C83.6455 10.096 83.7948 10.432 84.0935 10.688C84.4028 10.9333 84.8348 11.056 85.3895 11.056ZM94.115 12C93.3897 12 92.819 11.824 92.403 11.472C91.987 11.12 91.779 10.4853 91.779 9.568V5.2H90.403V4.064H91.779L91.955 2.16H93.123V4.064H95.459V5.2H93.123V9.568C93.123 10.0693 93.2243 10.4107 93.427 10.592C93.6297 10.7627 93.987 10.848 94.499 10.848H95.331V12H94.115ZM99.8065 12.192C99.1452 12.192 98.5958 12.08 98.1585 11.856C97.7212 11.632 97.3958 11.3333 97.1825 10.96C96.9692 10.5867 96.8625 10.1813 96.8625 9.744C96.8625 8.93333 97.1718 8.30933 97.7905 7.872C98.4092 7.43467 99.2518 7.216 100.319 7.216H102.463V7.12C102.463 6.42667 102.281 5.904 101.919 5.552C101.556 5.18933 101.071 5.008 100.463 5.008C99.9398 5.008 99.4865 5.14133 99.1025 5.408C98.7292 5.664 98.4945 6.04267 98.3985 6.544H97.0225C97.0758 5.968 97.2678 5.48267 97.5985 5.088C97.9398 4.69333 98.3612 4.39467 98.8625 4.192C99.3638 3.97867 99.8972 3.872 100.463 3.872C101.572 3.872 102.404 4.17067 102.959 4.768C103.524 5.35467 103.807 6.13867 103.807 7.12V12H102.607L102.527 10.576C102.303 11.024 101.972 11.408 101.535 11.728C101.108 12.0373 100.532 12.192 99.8065 12.192ZM100.015 11.056C100.527 11.056 100.964 10.9227 101.327 10.656C101.7 10.3893 101.983 10.0427 102.175 9.616C102.367 9.18933 102.463 8.74133 102.463 8.272V8.256H100.431C99.6412 8.256 99.0812 8.39467 98.7505 8.672C98.4305 8.93867 98.2705 9.27467 98.2705 9.68C98.2705 10.096 98.4198 10.432 98.7185 10.688C99.0278 10.9333 99.4598 11.056 100.015 11.056ZM114.953 12.192C113.908 12.192 112.99 11.952 112.201 11.472C111.412 10.9813 110.798 10.304 110.361 9.44C109.924 8.56533 109.705 7.55733 109.705 6.416C109.705 5.27467 109.924 4.26667 110.361 3.392C110.809 2.51733 111.438 1.83467 112.249 1.344C113.07 0.853333 114.036 0.608 115.145 0.608C116.404 0.608 117.449 0.912 118.281 1.52C119.124 2.128 119.668 2.96533 119.913 4.032H118.361C118.212 3.36 117.854 2.82667 117.289 2.432C116.734 2.03733 116.02 1.84 115.145 1.84C114.324 1.84 113.609 2.02667 113.001 2.4C112.393 2.76267 111.918 3.28533 111.577 3.968C111.246 4.65067 111.081 5.46667 111.081 6.416C111.081 7.36533 111.246 8.18133 111.577 8.864C111.908 9.54667 112.366 10.0747 112.953 10.448C113.54 10.8107 114.222 10.992 115.001 10.992C116.196 10.992 117.097 10.6453 117.705 9.952C118.313 9.248 118.66 8.288 118.745 7.072H115.513V6.016H120.121V12H118.889L118.777 10.16C118.372 10.8107 117.876 11.312 117.289 11.664C116.702 12.016 115.924 12.192 114.953 12.192ZM122.167 12V0.48H123.511V5.424C123.777 4.93333 124.156 4.55467 124.647 4.288C125.137 4.01067 125.671 3.872 126.247 3.872C127.164 3.872 127.9 4.16 128.455 4.736C129.009 5.30133 129.286 6.176 129.286 7.36V12H127.959V7.504C127.959 5.85067 127.292 5.024 125.959 5.024C125.265 5.024 124.684 5.27467 124.215 5.776C123.745 6.26667 123.511 6.97067 123.511 7.888V12H122.167ZM133.963 12.192C133.301 12.192 132.752 12.08 132.315 11.856C131.877 11.632 131.552 11.3333 131.339 10.96C131.125 10.5867 131.019 10.1813 131.019 9.744C131.019 8.93333 131.328 8.30933 131.947 7.872C132.565 7.43467 133.408 7.216 134.475 7.216H136.619V7.12C136.619 6.42667 136.437 5.904 136.075 5.552C135.712 5.18933 135.227 5.008 134.619 5.008C134.096 5.008 133.643 5.14133 133.259 5.408C132.885 5.664 132.651 6.04267 132.555 6.544H131.179C131.232 5.968 131.424 5.48267 131.755 5.088C132.096 4.69333 132.517 4.39467 133.019 4.192C133.52 3.97867 134.053 3.872 134.619 3.872C135.728 3.872 136.56 4.17067 137.115 4.768C137.68 5.35467 137.963 6.13867 137.963 7.12V12H136.763L136.683 10.576C136.459 11.024 136.128 11.408 135.691 11.728C135.264 12.0373 134.688 12.192 133.963 12.192ZM134.171 11.056C134.683 11.056 135.12 10.9227 135.483 10.656C135.856 10.3893 136.139 10.0427 136.331 9.616C136.523 9.18933 136.619 8.74133 136.619 8.272V8.256H134.587C133.797 8.256 133.237 8.39467 132.907 8.672C132.587 8.93867 132.427 9.27467 132.427 9.68C132.427 10.096 132.576 10.432 132.875 10.688C133.184 10.9333 133.616 11.056 134.171 11.056ZM139.979 12V4.064H141.195L141.275 5.488C141.531 4.98667 141.899 4.592 142.379 4.304C142.859 4.016 143.403 3.872 144.011 3.872C144.95 3.872 145.696 4.16 146.251 4.736C146.816 5.30133 147.099 6.176 147.099 7.36V12H145.755V7.504C145.755 5.85067 145.072 5.024 143.707 5.024C143.024 5.024 142.454 5.27467 141.995 5.776C141.547 6.26667 141.323 6.97067 141.323 7.888V12H139.979ZM151.775 12.192C151.114 12.192 150.565 12.08 150.127 11.856C149.69 11.632 149.365 11.3333 149.151 10.96C148.938 10.5867 148.831 10.1813 148.831 9.744C148.831 8.93333 149.141 8.30933 149.759 7.872C150.378 7.43467 151.221 7.216 152.287 7.216H154.431V7.12C154.431 6.42667 154.25 5.904 153.887 5.552C153.525 5.18933 153.039 5.008 152.431 5.008C151.909 5.008 151.455 5.14133 151.071 5.408C150.698 5.664 150.463 6.04267 150.367 6.544H148.991C149.045 5.968 149.237 5.48267 149.567 5.088C149.909 4.69333 150.33 4.39467 150.831 4.192C151.333 3.97867 151.866 3.872 152.431 3.872C153.541 3.872 154.373 4.17067 154.927 4.768C155.493 5.35467 155.775 6.13867 155.775 7.12V12H154.575L154.495 10.576C154.271 11.024 153.941 11.408 153.503 11.728C153.077 12.0373 152.501 12.192 151.775 12.192ZM151.983 11.056C152.495 11.056 152.933 10.9227 153.295 10.656C153.669 10.3893 153.951 10.0427 154.143 9.616C154.335 9.18933 154.431 8.74133 154.431 8.272V8.256H152.399C151.61 8.256 151.05 8.39467 150.719 8.672C150.399 8.93867 150.239 9.27467 150.239 9.68C150.239 10.096 150.389 10.432 150.687 10.688C150.997 10.9333 151.429 11.056 151.983 11.056ZM161.402 12L165.53 0.799999H166.954L171.066 12H169.642L168.618 9.12H163.85L162.81 12H161.402ZM164.25 8.032H168.218L166.234 2.496L164.25 8.032ZM175.861 12.192C175.104 12.192 174.421 12.0213 173.813 11.68C173.216 11.328 172.741 10.8427 172.389 10.224C172.048 9.59467 171.877 8.864 171.877 8.032C171.877 7.2 172.048 6.47467 172.389 5.856C172.741 5.22667 173.216 4.74133 173.813 4.4C174.421 4.048 175.104 3.872 175.861 3.872C176.8 3.872 177.589 4.11733 178.229 4.608C178.88 5.09867 179.291 5.75467 179.461 6.576H178.085C177.979 6.08533 177.717 5.70667 177.301 5.44C176.885 5.16267 176.4 5.024 175.845 5.024C175.397 5.024 174.976 5.136 174.581 5.36C174.187 5.584 173.867 5.92 173.621 6.368C173.376 6.816 173.253 7.37067 173.253 8.032C173.253 8.69333 173.376 9.248 173.621 9.696C173.867 10.144 174.187 10.4853 174.581 10.72C174.976 10.944 175.397 11.056 175.845 11.056C176.4 11.056 176.885 10.9227 177.301 10.656C177.717 10.3787 177.979 9.98933 178.085 9.488H179.461C179.301 10.288 178.896 10.9387 178.245 11.44C177.595 11.9413 176.8 12.192 175.861 12.192ZM183.978 12.192C183.317 12.192 182.768 12.08 182.33 11.856C181.893 11.632 181.568 11.3333 181.354 10.96C181.141 10.5867 181.034 10.1813 181.034 9.744C181.034 8.93333 181.344 8.30933 181.962 7.872C182.581 7.43467 183.424 7.216 184.49 7.216H186.634V7.12C186.634 6.42667 186.453 5.904 186.09 5.552C185.728 5.18933 185.242 5.008 184.634 5.008C184.112 5.008 183.658 5.14133 183.274 5.408C182.901 5.664 182.666 6.04267 182.57 6.544H181.194C181.248 5.968 181.44 5.48267 181.77 5.088C182.112 4.69333 182.533 4.39467 183.034 4.192C183.536 3.97867 184.069 3.872 184.634 3.872C185.744 3.872 186.576 4.17067 187.13 4.768C187.696 5.35467 187.978 6.13867 187.978 7.12V12H186.778L186.698 10.576C186.474 11.024 186.144 11.408 185.706 11.728C185.28 12.0373 184.704 12.192 183.978 12.192ZM184.186 11.056C184.698 11.056 185.136 10.9227 185.498 10.656C185.872 10.3893 186.154 10.0427 186.346 9.616C186.538 9.18933 186.634 8.74133 186.634 8.272V8.256H184.602C183.813 8.256 183.253 8.39467 182.922 8.672C182.602 8.93867 182.442 9.27467 182.442 9.68C182.442 10.096 182.592 10.432 182.89 10.688C183.2 10.9333 183.632 11.056 184.186 11.056ZM193.595 12.192C192.805 12.192 192.112 12.0107 191.515 11.648C190.928 11.2853 190.469 10.7893 190.139 10.16C189.819 9.53067 189.659 8.816 189.659 8.016C189.659 7.216 189.824 6.50667 190.155 5.888C190.485 5.25867 190.944 4.768 191.531 4.416C192.117 4.05333 192.811 3.872 193.611 3.872C194.261 3.872 194.837 4.00533 195.339 4.272C195.84 4.53867 196.229 4.912 196.507 5.392V0.48H197.851V12H196.635L196.507 10.688C196.251 11.072 195.883 11.4187 195.403 11.728C194.923 12.0373 194.32 12.192 193.595 12.192ZM193.739 11.024C194.272 11.024 194.741 10.9013 195.147 10.656C195.563 10.4 195.883 10.048 196.107 9.6C196.341 9.152 196.459 8.62933 196.459 8.032C196.459 7.43467 196.341 6.912 196.107 6.464C195.883 6.016 195.563 5.66933 195.147 5.424C194.741 5.168 194.272 5.04 193.739 5.04C193.216 5.04 192.747 5.168 192.331 5.424C191.925 5.66933 191.605 6.016 191.371 6.464C191.147 6.912 191.035 7.43467 191.035 8.032C191.035 8.62933 191.147 9.152 191.371 9.6C191.605 10.048 191.925 10.4 192.331 10.656C192.747 10.9013 193.216 11.024 193.739 11.024ZM203.61 12.192C202.852 12.192 202.18 12.0213 201.594 11.68C201.007 11.328 200.543 10.8427 200.202 10.224C199.871 9.60533 199.706 8.87467 199.706 8.032C199.706 7.2 199.871 6.47467 200.202 5.856C200.532 5.22667 200.991 4.74133 201.578 4.4C202.175 4.048 202.863 3.872 203.641 3.872C204.41 3.872 205.071 4.048 205.626 4.4C206.191 4.74133 206.623 5.19467 206.922 5.76C207.22 6.32533 207.37 6.93333 207.37 7.584C207.37 7.70133 207.364 7.81867 207.354 7.936C207.354 8.05333 207.354 8.18667 207.354 8.336H201.034C201.066 8.944 201.204 9.45067 201.45 9.856C201.706 10.2507 202.02 10.5493 202.394 10.752C202.778 10.9547 203.183 11.056 203.61 11.056C204.164 11.056 204.628 10.928 205.002 10.672C205.375 10.416 205.647 10.0693 205.818 9.632H207.146C206.932 10.368 206.522 10.9813 205.914 11.472C205.316 11.952 204.548 12.192 203.61 12.192ZM203.61 5.008C202.97 5.008 202.399 5.20533 201.898 5.6C201.407 5.984 201.124 6.54933 201.049 7.296H206.042C206.01 6.58133 205.764 6.02133 205.306 5.616C204.847 5.21067 204.282 5.008 203.61 5.008ZM209.151 12V4.064H210.367L210.463 5.216C210.719 4.78933 211.06 4.45867 211.487 4.224C211.914 3.98933 212.394 3.872 212.927 3.872C213.556 3.872 214.095 4 214.543 4.256C215.002 4.512 215.354 4.90133 215.599 5.424C215.876 4.944 216.255 4.56533 216.735 4.288C217.226 4.01067 217.754 3.872 218.319 3.872C219.268 3.872 220.026 4.16 220.591 4.736C221.156 5.30133 221.439 6.176 221.439 7.36V12H220.111V7.504C220.111 6.68267 219.946 6.064 219.615 5.648C219.284 5.232 218.81 5.024 218.191 5.024C217.551 5.024 217.018 5.27467 216.591 5.776C216.175 6.26667 215.967 6.97067 215.967 7.888V12H214.623V7.504C214.623 6.68267 214.458 6.064 214.127 5.648C213.796 5.232 213.322 5.024 212.703 5.024C212.074 5.024 211.546 5.27467 211.119 5.776C210.703 6.26667 210.495 6.97067 210.495 7.888V12H209.151ZM224.093 15.52L226.061 11.232H225.597L222.445 4.064H223.901L226.525 10.24L229.309 4.064H230.701L225.501 15.52H224.093Z" fill="white"/>
</svg>
