<svg width="182" height="16" viewBox="0 0 182 16" fill="none" xmlns="http://www.w3.org/2000/svg">
<path d="M0.184 12V0.799999H4.12C4.90933 0.799999 5.56 0.927999 6.072 1.184C6.59467 1.42933 6.984 1.77067 7.24 2.208C7.496 2.63467 7.624 3.11467 7.624 3.648C7.624 4.37333 7.42667 4.944 7.032 5.36C6.648 5.776 6.184 6.064 5.64 6.224C6.056 6.29867 6.43467 6.464 6.776 6.72C7.11733 6.976 7.384 7.296 7.576 7.68C7.77867 8.064 7.88 8.48533 7.88 8.944C7.88 9.50933 7.74133 10.0267 7.464 10.496C7.18667 10.9547 6.776 11.3227 6.232 11.6C5.688 11.8667 5.02667 12 4.248 12H0.184ZM1.528 5.696H4.024C4.73867 5.696 5.288 5.53067 5.672 5.2C6.056 4.85867 6.248 4.38933 6.248 3.792C6.248 3.22667 6.056 2.77333 5.672 2.432C5.29867 2.09067 4.73333 1.92 3.976 1.92H1.528V5.696ZM1.528 10.88H4.104C4.872 10.88 5.464 10.704 5.88 10.352C6.296 9.98933 6.504 9.488 6.504 8.848C6.504 8.21867 6.28533 7.71733 5.848 7.344C5.41067 6.96 4.81867 6.768 4.072 6.768H1.528V10.88ZM9.729 12V0.48H11.073V12H9.729ZM16.8919 12.192C16.1452 12.192 15.4732 12.0213 14.8759 11.68C14.2785 11.3387 13.8039 10.8587 13.4519 10.24C13.1105 9.61067 12.9399 8.87467 12.9399 8.032C12.9399 7.18933 13.1159 6.45867 13.4679 5.84C13.8199 5.21067 14.2945 4.72533 14.8919 4.384C15.4999 4.04267 16.1772 3.872 16.9239 3.872C17.6705 3.872 18.3425 4.04267 18.9399 4.384C19.5372 4.72533 20.0065 5.21067 20.3479 5.84C20.6999 6.45867 20.8759 7.18933 20.8759 8.032C20.8759 8.87467 20.6999 9.61067 20.3479 10.24C19.9959 10.8587 19.5159 11.3387 18.9079 11.68C18.3105 12.0213 17.6385 12.192 16.8919 12.192ZM16.8919 11.04C17.3505 11.04 17.7772 10.928 18.1719 10.704C18.5665 10.48 18.8865 10.144 19.1319 9.696C19.3772 9.248 19.4999 8.69333 19.4999 8.032C19.4999 7.37067 19.3772 6.816 19.1319 6.368C18.8972 5.92 18.5825 5.584 18.1879 5.36C17.7932 5.136 17.3719 5.024 16.9239 5.024C16.4652 5.024 16.0385 5.136 15.6439 5.36C15.2492 5.584 14.9292 5.92 14.6839 6.368C14.4385 6.816 14.3159 7.37067 14.3159 8.032C14.3159 8.69333 14.4385 9.248 14.6839 9.696C14.9292 10.144 15.2439 10.48 15.6279 10.704C16.0225 10.928 16.4439 11.04 16.8919 11.04ZM25.5369 9.504C25.0889 9.504 24.6782 9.44533 24.3049 9.328L23.5049 10.08C23.6222 10.1653 23.7662 10.24 23.9369 10.304C24.1182 10.3573 24.3742 10.4107 24.7049 10.464C25.0355 10.5067 25.4995 10.5547 26.0969 10.608C27.1635 10.6827 27.9262 10.928 28.3849 11.344C28.8435 11.76 29.0729 12.304 29.0729 12.976C29.0729 13.4347 28.9449 13.872 28.6889 14.288C28.4435 14.704 28.0595 15.0453 27.5369 15.312C27.0249 15.5787 26.3635 15.712 25.5529 15.712C24.8382 15.712 24.2035 15.616 23.6489 15.424C23.0942 15.2427 22.6622 14.96 22.3529 14.576C22.0435 14.2027 21.8889 13.728 21.8889 13.152C21.8889 12.8533 21.9689 12.528 22.1289 12.176C22.2889 11.8347 22.5875 11.5093 23.0249 11.2C22.7902 11.104 22.5875 11.0027 22.4169 10.896C22.2569 10.7787 22.1075 10.6507 21.9689 10.512V10.144L23.3289 8.8C22.6995 8.26667 22.3849 7.56267 22.3849 6.688C22.3849 6.16533 22.5075 5.69067 22.7529 5.264C22.9982 4.83733 23.3555 4.50133 23.8249 4.256C24.2942 4 24.8649 3.872 25.5369 3.872C25.9955 3.872 26.4115 3.936 26.7849 4.064H29.7129V5.072L28.2249 5.136C28.5342 5.584 28.6889 6.10133 28.6889 6.688C28.6889 7.21067 28.5609 7.68533 28.3049 8.112C28.0595 8.53867 27.7022 8.88 27.2329 9.136C26.7742 9.38133 26.2089 9.504 25.5369 9.504ZM25.5369 8.4C26.1022 8.4 26.5502 8.256 26.8809 7.968C27.2222 7.66933 27.3929 7.24267 27.3929 6.688C27.3929 6.144 27.2222 5.728 26.8809 5.44C26.5502 5.14133 26.1022 4.992 25.5369 4.992C24.9609 4.992 24.5022 5.14133 24.1609 5.44C23.8302 5.728 23.6649 6.144 23.6649 6.688C23.6649 7.24267 23.8302 7.66933 24.1609 7.968C24.5022 8.256 24.9609 8.4 25.5369 8.4ZM23.2009 13.024C23.2009 13.5573 23.4249 13.952 23.8729 14.208C24.3209 14.4747 24.8809 14.608 25.5529 14.608C26.2142 14.608 26.7422 14.464 27.1369 14.176C27.5422 13.888 27.7449 13.504 27.7449 13.024C27.7449 12.6827 27.6062 12.384 27.3289 12.128C27.0515 11.8827 26.5395 11.7387 25.7929 11.696C25.2062 11.6533 24.6995 11.6 24.2729 11.536C23.8355 11.7707 23.5475 12.0213 23.4089 12.288C23.2702 12.5653 23.2009 12.8107 23.2009 13.024ZM37.2074 8.592C36.866 8.592 36.546 8.50667 36.2474 8.336C35.9594 8.16533 35.73 7.936 35.5594 7.648C35.3887 7.34933 35.3034 7.024 35.3034 6.672C35.3034 6.30933 35.3887 5.984 35.5594 5.696C35.73 5.39733 35.9594 5.16267 36.2474 4.992C36.546 4.82133 36.866 4.736 37.2074 4.736C37.57 4.736 37.8954 4.82133 38.1834 4.992C38.482 5.16267 38.7167 5.39733 38.8874 5.696C39.058 5.984 39.1434 6.30933 39.1434 6.672C39.1434 7.024 39.058 7.34933 38.8874 7.648C38.7167 7.936 38.482 8.16533 38.1834 8.336C37.8954 8.50667 37.57 8.592 37.2074 8.592ZM48.1361 12V1.904H44.7921V0.799999H52.8241V1.904H49.4801V12H48.1361ZM55.1415 12L52.8215 4.064H54.1655L55.8455 10.288L57.7015 4.064H59.2215L61.0935 10.288L62.7575 4.064H64.1175L61.7975 12H60.4215L58.4695 5.456L56.5175 12H55.1415ZM66.42 2.304C66.1533 2.304 65.9293 2.21867 65.748 2.048C65.5773 1.86667 65.492 1.64267 65.492 1.376C65.492 1.12 65.5773 0.906666 65.748 0.735999C65.9293 0.565333 66.1533 0.48 66.42 0.48C66.676 0.48 66.8947 0.565333 67.076 0.735999C67.2573 0.906666 67.348 1.12 67.348 1.376C67.348 1.64267 67.2573 1.86667 67.076 2.048C66.8947 2.21867 66.676 2.304 66.42 2.304ZM65.748 12V4.064H67.092V12H65.748ZM72.5681 12C71.8428 12 71.2721 11.824 70.8561 11.472C70.4401 11.12 70.2321 10.4853 70.2321 9.568V5.2H68.8561V4.064H70.2321L70.4081 2.16H71.5761V4.064H73.9121V5.2H71.5761V9.568C71.5761 10.0693 71.6775 10.4107 71.8801 10.592C72.0828 10.7627 72.4401 10.848 72.9521 10.848H73.7841V12H72.5681ZM78.7556 12C78.0303 12 77.4596 11.824 77.0436 11.472C76.6276 11.12 76.4196 10.4853 76.4196 9.568V5.2H75.0436V4.064H76.4196L76.5956 2.16H77.7636V4.064H80.0996V5.2H77.7636V9.568C77.7636 10.0693 77.865 10.4107 78.0676 10.592C78.2703 10.7627 78.6276 10.848 79.1396 10.848H79.9716V12H78.7556ZM85.1564 12.192C84.399 12.192 83.727 12.0213 83.1404 11.68C82.5537 11.328 82.0897 10.8427 81.7484 10.224C81.4177 9.60533 81.2524 8.87467 81.2524 8.032C81.2524 7.2 81.4177 6.47467 81.7484 5.856C82.079 5.22667 82.5377 4.74133 83.1244 4.4C83.7217 4.048 84.4097 3.872 85.1884 3.872C85.9564 3.872 86.6177 4.048 87.1724 4.4C87.7377 4.74133 88.1697 5.19467 88.4684 5.76C88.767 6.32533 88.9164 6.93333 88.9164 7.584C88.9164 7.70133 88.911 7.81867 88.9004 7.936C88.9004 8.05333 88.9004 8.18667 88.9004 8.336H82.5804C82.6124 8.944 82.751 9.45067 82.9964 9.856C83.2524 10.2507 83.567 10.5493 83.9404 10.752C84.3244 10.9547 84.7297 11.056 85.1564 11.056C85.711 11.056 86.175 10.928 86.5484 10.672C86.9217 10.416 87.1937 10.0693 87.3644 9.632H88.6924C88.479 10.368 88.0684 10.9813 87.4604 11.472C86.863 11.952 86.095 12.192 85.1564 12.192ZM85.1564 5.008C84.5164 5.008 83.9457 5.20533 83.4444 5.6C82.9537 5.984 82.671 6.54933 82.5964 7.296H87.5884C87.5564 6.58133 87.311 6.02133 86.8524 5.616C86.3937 5.21067 85.8284 5.008 85.1564 5.008ZM90.6978 12V4.064H91.9138L92.0258 5.584C92.2711 5.06133 92.6444 4.64533 93.1458 4.336C93.6471 4.02667 94.2658 3.872 95.0018 3.872V5.28H94.6338C94.1644 5.28 93.7324 5.36533 93.3378 5.536C92.9431 5.696 92.6284 5.97333 92.3938 6.368C92.1591 6.76267 92.0418 7.30667 92.0418 8V12H90.6978ZM102.489 8.592C102.147 8.592 101.827 8.50667 101.529 8.336C101.241 8.16533 101.011 7.936 100.841 7.648C100.67 7.34933 100.585 7.024 100.585 6.672C100.585 6.30933 100.67 5.984 100.841 5.696C101.011 5.39733 101.241 5.16267 101.529 4.992C101.827 4.82133 102.147 4.736 102.489 4.736C102.851 4.736 103.177 4.82133 103.465 4.992C103.763 5.16267 103.998 5.39733 104.169 5.696C104.339 5.984 104.425 6.30933 104.425 6.672C104.425 7.024 104.339 7.34933 104.169 7.648C103.998 7.936 103.763 8.16533 103.465 8.336C103.177 8.50667 102.851 8.592 102.489 8.592ZM110.793 12V0.799999H117.609V1.904H112.137V5.84H116.793V6.928H112.137V12H110.793ZM121.353 12.192C120.692 12.192 120.143 12.08 119.705 11.856C119.268 11.632 118.943 11.3333 118.729 10.96C118.516 10.5867 118.409 10.1813 118.409 9.744C118.409 8.93333 118.719 8.30933 119.337 7.872C119.956 7.43467 120.799 7.216 121.865 7.216H124.009V7.12C124.009 6.42667 123.828 5.904 123.465 5.552C123.103 5.18933 122.617 5.008 122.009 5.008C121.487 5.008 121.033 5.14133 120.649 5.408C120.276 5.664 120.041 6.04267 119.945 6.544H118.569C118.623 5.968 118.815 5.48267 119.145 5.088C119.487 4.69333 119.908 4.39467 120.409 4.192C120.911 3.97867 121.444 3.872 122.009 3.872C123.119 3.872 123.951 4.17067 124.505 4.768C125.071 5.35467 125.353 6.13867 125.353 7.12V12H124.153L124.073 10.576C123.849 11.024 123.519 11.408 123.081 11.728C122.655 12.0373 122.079 12.192 121.353 12.192ZM121.561 11.056C122.073 11.056 122.511 10.9227 122.873 10.656C123.247 10.3893 123.529 10.0427 123.721 9.616C123.913 9.18933 124.009 8.74133 124.009 8.272V8.256H121.977C121.188 8.256 120.628 8.39467 120.297 8.672C119.977 8.93867 119.817 9.27467 119.817 9.68C119.817 10.096 119.967 10.432 120.265 10.688C120.575 10.9333 121.007 11.056 121.561 11.056ZM131.018 12.192C130.26 12.192 129.578 12.0213 128.97 11.68C128.372 11.328 127.898 10.8427 127.546 10.224C127.204 9.59467 127.034 8.864 127.034 8.032C127.034 7.2 127.204 6.47467 127.546 5.856C127.898 5.22667 128.372 4.74133 128.97 4.4C129.578 4.048 130.26 3.872 131.018 3.872C131.956 3.872 132.746 4.11733 133.386 4.608C134.036 5.09867 134.447 5.75467 134.618 6.576H133.242C133.135 6.08533 132.874 5.70667 132.458 5.44C132.042 5.16267 131.556 5.024 131.002 5.024C130.554 5.024 130.132 5.136 129.738 5.36C129.343 5.584 129.023 5.92 128.778 6.368C128.532 6.816 128.41 7.37067 128.41 8.032C128.41 8.69333 128.532 9.248 128.778 9.696C129.023 10.144 129.343 10.4853 129.738 10.72C130.132 10.944 130.554 11.056 131.002 11.056C131.556 11.056 132.042 10.9227 132.458 10.656C132.874 10.3787 133.135 9.98933 133.242 9.488H134.618C134.458 10.288 134.052 10.9387 133.402 11.44C132.751 11.9413 131.956 12.192 131.018 12.192ZM140.063 12.192C139.305 12.192 138.633 12.0213 138.047 11.68C137.46 11.328 136.996 10.8427 136.655 10.224C136.324 9.60533 136.159 8.87467 136.159 8.032C136.159 7.2 136.324 6.47467 136.655 5.856C136.985 5.22667 137.444 4.74133 138.031 4.4C138.628 4.048 139.316 3.872 140.095 3.872C140.863 3.872 141.524 4.048 142.079 4.4C142.644 4.74133 143.076 5.19467 143.375 5.76C143.673 6.32533 143.823 6.93333 143.823 7.584C143.823 7.70133 143.817 7.81867 143.807 7.936C143.807 8.05333 143.807 8.18667 143.807 8.336H137.487C137.519 8.944 137.657 9.45067 137.903 9.856C138.159 10.2507 138.473 10.5493 138.847 10.752C139.231 10.9547 139.636 11.056 140.063 11.056C140.617 11.056 141.081 10.928 141.455 10.672C141.828 10.416 142.1 10.0693 142.271 9.632H143.599C143.385 10.368 142.975 10.9813 142.367 11.472C141.769 11.952 141.001 12.192 140.063 12.192ZM140.063 5.008C139.423 5.008 138.852 5.20533 138.351 5.6C137.86 5.984 137.577 6.54933 137.503 7.296H142.495C142.463 6.58133 142.217 6.02133 141.759 5.616C141.3 5.21067 140.735 5.008 140.063 5.008ZM149.844 12.192C149.193 12.192 148.612 12.0587 148.1 11.792C147.599 11.5253 147.215 11.152 146.948 10.672L146.82 12H145.604V0.48H146.948V5.376C147.204 4.992 147.567 4.64533 148.036 4.336C148.516 4.02667 149.124 3.872 149.86 3.872C150.649 3.872 151.337 4.05333 151.924 4.416C152.511 4.77867 152.964 5.27467 153.284 5.904C153.615 6.53333 153.78 7.248 153.78 8.048C153.78 8.848 153.615 9.56267 153.284 10.192C152.964 10.8107 152.505 11.3013 151.908 11.664C151.321 12.016 150.633 12.192 149.844 12.192ZM149.7 11.024C150.233 11.024 150.703 10.9013 151.108 10.656C151.513 10.4 151.833 10.048 152.068 9.6C152.303 9.152 152.42 8.62933 152.42 8.032C152.42 7.43467 152.303 6.912 152.068 6.464C151.833 6.016 151.513 5.66933 151.108 5.424C150.703 5.168 150.233 5.04 149.7 5.04C149.167 5.04 148.697 5.168 148.292 5.424C147.887 5.66933 147.567 6.016 147.332 6.464C147.097 6.912 146.98 7.43467 146.98 8.032C146.98 8.62933 147.097 9.152 147.332 9.6C147.567 10.048 147.887 10.4 148.292 10.656C148.697 10.9013 149.167 11.024 149.7 11.024ZM159.267 12.192C158.52 12.192 157.848 12.0213 157.251 11.68C156.654 11.3387 156.179 10.8587 155.827 10.24C155.486 9.61067 155.315 8.87467 155.315 8.032C155.315 7.18933 155.491 6.45867 155.843 5.84C156.195 5.21067 156.67 4.72533 157.267 4.384C157.875 4.04267 158.552 3.872 159.299 3.872C160.046 3.872 160.718 4.04267 161.315 4.384C161.912 4.72533 162.382 5.21067 162.723 5.84C163.075 6.45867 163.251 7.18933 163.251 8.032C163.251 8.87467 163.075 9.61067 162.723 10.24C162.371 10.8587 161.891 11.3387 161.283 11.68C160.686 12.0213 160.014 12.192 159.267 12.192ZM159.267 11.04C159.726 11.04 160.152 10.928 160.547 10.704C160.942 10.48 161.262 10.144 161.507 9.696C161.752 9.248 161.875 8.69333 161.875 8.032C161.875 7.37067 161.752 6.816 161.507 6.368C161.272 5.92 160.958 5.584 160.563 5.36C160.168 5.136 159.747 5.024 159.299 5.024C158.84 5.024 158.414 5.136 158.019 5.36C157.624 5.584 157.304 5.92 157.059 6.368C156.814 6.816 156.691 7.37067 156.691 8.032C156.691 8.69333 156.814 9.248 157.059 9.696C157.304 10.144 157.619 10.48 158.003 10.704C158.398 10.928 158.819 11.04 159.267 11.04ZM168.736 12.192C167.989 12.192 167.317 12.0213 166.72 11.68C166.122 11.3387 165.648 10.8587 165.296 10.24C164.954 9.61067 164.784 8.87467 164.784 8.032C164.784 7.18933 164.96 6.45867 165.312 5.84C165.664 5.21067 166.138 4.72533 166.736 4.384C167.344 4.04267 168.021 3.872 168.768 3.872C169.514 3.872 170.186 4.04267 170.784 4.384C171.381 4.72533 171.85 5.21067 172.192 5.84C172.544 6.45867 172.72 7.18933 172.72 8.032C172.72 8.87467 172.544 9.61067 172.192 10.24C171.84 10.8587 171.36 11.3387 170.752 11.68C170.154 12.0213 169.482 12.192 168.736 12.192ZM168.736 11.04C169.194 11.04 169.621 10.928 170.016 10.704C170.41 10.48 170.73 10.144 170.976 9.696C171.221 9.248 171.344 8.69333 171.344 8.032C171.344 7.37067 171.221 6.816 170.976 6.368C170.741 5.92 170.426 5.584 170.032 5.36C169.637 5.136 169.216 5.024 168.768 5.024C168.309 5.024 167.882 5.136 167.488 5.36C167.093 5.584 166.773 5.92 166.528 6.368C166.282 6.816 166.16 7.37067 166.16 8.032C166.16 8.69333 166.282 9.248 166.528 9.696C166.773 10.144 167.088 10.48 167.472 10.704C167.866 10.928 168.288 11.04 168.736 11.04ZM174.588 12V0.48H175.932V7.408L179.18 4.064H180.828L177.308 7.648L181.276 12H179.564L175.932 7.888V12H174.588Z" fill="white"/>
</svg>
